<?xml version="1.0" encoding="UTF-8"?>
<svg width="37px" height="36px" viewBox="0 0 37 36" version="1.1" xmlns="http://www.w3.org/2000/svg" xmlns:xlink="http://www.w3.org/1999/xlink">
    <!-- Generator: Sketch 52.4 (67378) - http://www.bohemiancoding.com/sketch -->
    <title>github-logo</title>
    <desc>Created with Sketch.</desc>
    <g id="Page-1" stroke="none" stroke-width="1" fill="none" fill-rule="evenodd">
        <g id="Mobile-Copy-6" transform="translate(-50.000000, -993.000000)" fill="#FFFFFF">
            <g id="Group-2" transform="translate(22.000000, 465.000000)">
                <g id="Group-3" transform="translate(28.000000, 528.000000)">
                    <g id="github-logo">
                        <path d="M34.5183493,9.18961696 C32.8640279,6.36258623 30.6200467,4.12442207 27.7858149,2.47461958 C24.9511613,0.824732948 21.8565646,0 18.4998313,0 C15.1435197,0 12.0479106,0.824985392 9.21384758,2.47461958 C6.37936271,4.12433792 4.13546583,6.36258623 2.48114451,9.18961696 C0.827076293,12.0165635 0,15.1036111 0,18.4506754 C0,22.4712591 1.17611379,26.0866709 3.52893197,29.2978365 C5.88149704,32.5092545 8.92066283,34.7314306 12.6461762,35.9646171 C13.0798366,36.0448942 13.4008633,35.988431 13.609594,35.7966581 C13.818409,35.6046327 13.92269,35.3641382 13.92269,35.0761843 C13.92269,35.0281359 13.9185559,34.5958684 13.9105407,33.7788771 C13.9022725,32.9618857 13.8983915,32.2491536 13.8983915,31.6410171 L13.3443356,31.7366091 C12.9910796,31.8011505 12.5454388,31.8284985 12.0074131,31.8207569 C11.4696406,31.8132678 10.9113662,31.757057 10.3333493,31.6525454 C9.75507928,31.5489594 9.21722237,31.3087173 8.71935669,30.9323241 C8.22174413,30.5559308 7.86848814,30.0632452 7.6596731,29.4550246 L7.41879757,28.9021733 C7.25824201,28.5341107 7.00547035,28.1252364 6.66014512,27.677065 C6.31481988,27.2284729 5.96561364,26.9243626 5.61235765,26.7642293 L5.4437026,26.6438137 C5.33132214,26.5637891 5.22704118,26.4672715 5.1306066,26.3552708 C5.03425638,26.24327 4.96212028,26.1311851 4.91394517,26.0189319 C4.8656857,25.9065945 4.90567694,25.8144526 5.03434075,25.7421696 C5.16300457,25.6698866 5.39552749,25.634797 5.73292197,25.634797 L6.21450429,25.7065751 C6.53569979,25.7707799 6.93299677,25.9625528 7.40690144,26.2830719 C7.88055301,26.6033386 8.26991923,27.0197021 8.57508448,27.5319941 C8.94462383,28.1888521 9.3898428,28.6893635 9.91200695,29.0337806 C10.4337493,29.3781977 10.9597944,29.5501117 11.4896362,29.5501117 C12.019478,29.5501117 12.4770993,29.5100573 12.8626689,29.4303693 C13.2478166,29.3502606 13.6091721,29.229845 13.9465666,29.0697958 C14.0910919,27.9962377 14.4845923,27.1715048 15.1267301,26.595008 C14.2114875,26.4990794 13.3886297,26.3545976 12.6577349,26.1624881 C11.9272619,25.9701261 11.1724061,25.6579376 10.3936736,25.2250812 C9.61451934,24.7928137 8.96816297,24.2560347 8.45443579,23.6156696 C7.94062424,22.974968 7.51894442,22.1338262 7.18998691,21.0930017 C6.86086066,20.0517563 6.69625535,18.8506301 6.69625535,17.4892864 C6.69625535,15.550941 7.33071559,13.9014751 8.59938296,12.5399631 C8.00508271,11.0826908 8.06118856,9.44904474 8.76786928,7.63919307 C9.23359009,7.49487953 9.92424056,7.60317779 10.8394832,7.96341468 C11.7548946,8.32381987 12.4251276,8.63255828 12.8508572,8.888536 C13.2765867,9.14442957 13.6176935,9.36127854 13.8746836,9.53714752 C15.3684494,9.12086817 16.9099684,8.91268643 18.4996625,8.91268643 C20.0893566,8.91268643 21.6312131,9.12086817 23.1250633,9.53714752 L24.0403903,8.96081899 C24.6663292,8.57626338 25.4054922,8.22385224 26.2561077,7.90350142 C27.1072293,7.5833189 27.7580573,7.49513197 28.2079166,7.63944551 C28.9302901,9.44938133 28.9946642,11.0829433 28.4001952,12.5402155 C29.6687782,13.9017275 30.3034915,15.5516142 30.3034915,17.4895388 C30.3034915,18.8508825 30.1382956,20.0557954 29.8096756,21.1050348 C29.4806337,22.1544425 29.055326,22.9947428 28.5335837,23.6277028 C28.0112508,24.2605787 27.3607603,24.7931503 26.5820279,25.2253336 C25.8031267,25.6578535 25.0480178,25.970042 24.3175448,26.1624039 C23.5867343,26.3547659 22.7638765,26.4993319 21.8486339,26.5954287 C22.6833878,27.3159025 23.1008492,28.4531605 23.1008492,30.0066979 L23.1008492,35.0755111 C23.1008492,35.363465 23.2012491,35.6038754 23.4022178,35.7959849 C23.6029333,35.9877578 23.9199103,36.044221 24.3535707,35.9638598 C28.0795903,34.7308416 31.1187561,32.5085813 33.4712368,29.2971633 C35.8234644,26.0859977 37,22.4705859 37,18.4500022 C36.9991563,15.1033586 36.1716582,12.0165635 34.5183493,9.18961696 Z" id="Path"></path>
                    </g>
                </g>
            </g>
        </g>
    </g>
</svg>