<?xml version="1.0" encoding="UTF-8"?>
<svg width="36px" height="36px" viewBox="0 0 36 36" version="1.1" xmlns="http://www.w3.org/2000/svg" xmlns:xlink="http://www.w3.org/1999/xlink">
    <!-- Generator: Sketch 52.4 (67378) - http://www.bohemiancoding.com/sketch -->
    <title>linkedin-button</title>
    <desc>Created with Sketch.</desc>
    <g id="Page-1" stroke="none" stroke-width="1" fill="none" fill-rule="evenodd">
        <g id="Mobile-Copy-6" transform="translate(-113.000000, -993.000000)" fill="#FFFFFF" fill-rule="nonzero">
            <g id="Group-2" transform="translate(22.000000, 465.000000)">
                <g id="Group-3" transform="translate(28.000000, 528.000000)">
                    <g id="linkedin-button" transform="translate(63.000000, 0.000000)">
                        <path d="M18,0 C8.05949933,0 0,8.05949933 0,18 C0,27.9405007 8.05949933,36 18,36 C27.9405007,36 36,27.9405007 36,18 C36,8.0572789 27.9405007,0 18,0 Z M13.5,26.7187454 L9,26.7187454 L9,10.9687084 L13.5,10.9687084 L13.5,26.7187454 Z M11.3894801,10.0034869 C10.2239757,10.0034869 9.28125463,9.05847136 9.28125463,7.89296699 C9.28125463,6.72746262 10.2262702,5.78244708 11.3894801,5.78244708 C12.5549845,5.78466751 13.5,6.72968305 13.5,7.89296699 C13.5,9.05847136 12.5549845,10.0034869 11.3894801,10.0034869 Z M29.249963,26.7187454 L24.749963,26.7187454 L24.749963,16.980748 C24.749963,15.8399645 24.4237076,15.0412753 23.0219494,15.0412753 C20.6976759,15.0412753 20.249963,16.980748 20.249963,16.980748 L20.249963,26.7187454 L15.749963,26.7187454 L15.749963,10.9687084 L20.249963,10.9687084 L20.249963,12.4739387 C20.893444,11.981225 22.499926,10.9709288 24.749963,10.9709288 C26.2079722,10.9709288 29.249963,11.8439284 29.249963,17.1178967 L29.249963,26.7187454 Z" id="Shape"></path>
                    </g>
                </g>
            </g>
        </g>
    </g>
</svg>